<?xml version="1.0" encoding="UTF-8" standalone="no"?><!DOCTYPE svg PUBLIC "-//W3C//DTD SVG 1.1//EN" "http://www.w3.org/Graphics/SVG/1.1/DTD/svg11.dtd"><svg width="100%" height="100%" viewBox="0 0 2963 2959" version="1.1" xmlns="http://www.w3.org/2000/svg" xmlns:xlink="http://www.w3.org/1999/xlink" xml:space="preserve" xmlns:serif="http://www.serif.com/" style="fill-rule:evenodd;clip-rule:evenodd;stroke-linejoin:round;stroke-miterlimit:2;"><rect id="logoOptionC-outlined" x="0.07" y="0" width="2958.31" height="2958.31" style="fill:none;"/><g id="logoOptionC-outlined1" serif:id="logoOptionC-outlined"><path d="M1343.51,293.866c0.963,2.341 2.172,4.401 3.627,6.182c1.454,1.78 3.139,3.258 5.054,4.433c1.915,1.175 4.048,2.006 6.4,2.492c2.352,0.486 4.893,0.6 7.621,0.344c4.867,-0.458 9.082,-2.092 12.647,-4.9c3.564,-2.808 6.205,-6.674 7.924,-11.598c1.718,-4.923 2.257,-10.785 1.617,-17.585c-0.642,-6.823 -2.262,-12.505 -4.859,-17.046c-2.597,-4.541 -5.927,-7.863 -9.988,-9.966c-4.062,-2.102 -8.621,-2.915 -13.677,-2.44c-4.608,0.434 -8.515,1.695 -11.722,3.783c-3.207,2.088 -5.572,4.843 -7.096,8.265c-1.524,3.421 -2.078,7.336 -1.663,11.744l-3.769,-0.252l24.607,-2.316l1.208,12.835l-36.734,3.457l-1.022,-10.854c-0.731,-7.773 0.286,-14.637 3.051,-20.592c2.766,-5.955 6.894,-10.732 12.384,-14.331c5.49,-3.599 11.971,-5.75 19.442,-6.453c8.332,-0.785 15.823,0.407 22.473,3.574c6.651,3.167 12.06,8.055 16.228,14.666c4.168,6.611 6.701,14.689 7.599,24.235c0.686,7.289 0.264,13.905 -1.266,19.848c-1.53,5.943 -3.98,11.1 -7.35,15.472c-3.369,4.371 -7.471,7.848 -12.304,10.431c-4.834,2.583 -10.212,4.154 -16.134,4.711c-5.008,0.471 -9.746,0.178 -14.211,-0.879c-4.466,-1.057 -8.512,-2.766 -12.137,-5.126c-3.626,-2.361 -6.702,-5.281 -9.229,-8.762c-2.527,-3.481 -4.342,-7.413 -5.444,-11.798l16.723,-1.574Z" style="fill:#002fa6;fill-rule:nonzero;"/><path d="M1265.13,242.316l17.913,89.127l-33.458,6.724c-6.824,1.372 -12.808,1.335 -17.952,-0.109c-5.144,-1.445 -9.341,-4.068 -12.593,-7.87c-3.251,-3.802 -5.447,-8.543 -6.589,-14.223c-1.146,-5.704 -0.931,-10.894 0.647,-15.57c1.578,-4.676 4.488,-8.625 8.73,-11.847c4.242,-3.222 9.793,-5.522 16.651,-6.901l23.814,-4.786l2.687,13.37l-21.655,4.352c-3.992,0.803 -7.154,2.021 -9.485,3.654c-2.331,1.633 -3.892,3.657 -4.684,6.071c-0.791,2.414 -0.87,5.196 -0.237,8.347c0.635,3.162 1.797,5.742 3.484,7.739c1.688,1.997 3.933,3.331 6.736,4.003c2.803,0.671 6.218,0.602 10.245,-0.208l14.796,-2.973l-15.205,-75.653l16.155,-3.247Zm-37.944,49.643l-30.19,-35.95l18.035,-3.624l29.771,36.033l-17.616,3.541Z" style="fill:#002fa6;fill-rule:nonzero;"/><path d="M1082.6,335.916c-2.891,-9.365 -3.62,-17.914 -2.186,-25.647c1.434,-7.734 4.614,-14.297 9.54,-19.689c4.925,-5.392 11.183,-9.26 18.772,-11.603c7.612,-2.351 14.971,-2.681 22.077,-0.991c7.107,1.689 13.429,5.324 18.968,10.905c5.538,5.58 9.75,13.042 12.634,22.384c2.892,9.365 3.624,17.913 2.195,25.645c-1.428,7.732 -4.602,14.293 -9.522,19.683c-4.92,5.391 -11.186,9.261 -18.798,11.612c-7.59,2.343 -14.939,2.676 -22.047,1c-7.108,-1.677 -13.434,-5.305 -18.979,-10.883c-5.544,-5.579 -9.762,-13.051 -12.654,-22.416Zm15.812,-4.882c2.036,6.594 4.779,11.842 8.23,15.745c3.45,3.902 7.347,6.462 11.69,7.679c4.343,1.217 8.873,1.097 13.589,-0.359c4.717,-1.456 8.525,-3.911 11.426,-7.365c2.901,-3.454 4.677,-7.765 5.326,-12.933c0.65,-5.169 -0.043,-11.05 -2.079,-17.644c-2.036,-6.594 -4.779,-11.842 -8.23,-15.744c-3.45,-3.903 -7.347,-6.462 -11.69,-7.679c-4.343,-1.217 -8.873,-1.098 -13.589,0.358c-4.717,1.457 -8.525,3.912 -11.426,7.365c-2.902,3.454 -4.677,7.765 -5.326,12.934c-0.65,5.168 0.043,11.049 2.079,17.643Z" style="fill:#002fa6;fill-rule:nonzero;"/><path d="M999.702,319.098l60.528,72.513l-16.175,7.236l-42.221,-54.287l-0.746,0.333l11.297,68.123l-14.716,6.583l-43.288,-53.888l-0.745,0.334l12.363,67.723l-16.176,7.236l-13.72,-93.453l14.846,-6.642l42.674,50.778l0.648,-0.29l-9.415,-65.657l14.846,-6.642Z" style="fill:#002fa6;fill-rule:nonzero;"/><path d="M903.42,467.868l-44.527,-79.258l14.366,-8.071l44.527,79.258l-14.366,8.071Z" style="fill:#002fa6;fill-rule:nonzero;"/><path d="M798.113,535.073l-50.89,-75.33l12.123,-8.19l70.186,27.325l0.618,-0.417l-34.669,-51.319l13.655,-9.224l50.889,75.33l-12.241,8.27l-70.117,-27.414l-0.677,0.458l34.688,51.347l-13.565,9.164Z" style="fill:#002fa6;fill-rule:nonzero;"/><path d="M692.186,582.987c2.128,1.37 4.298,2.37 6.509,3c2.211,0.629 4.438,0.879 6.681,0.749c2.243,-0.13 4.468,-0.668 6.676,-1.613c2.208,-0.945 4.358,-2.303 6.45,-4.073c3.732,-3.158 6.258,-6.907 7.578,-11.248c1.32,-4.342 1.278,-9.024 -0.126,-14.046c-1.404,-5.022 -4.311,-10.14 -8.722,-15.355c-4.427,-5.232 -9.003,-8.969 -13.73,-11.211c-4.726,-2.242 -9.357,-3.065 -13.892,-2.469c-4.535,0.596 -8.74,2.534 -12.617,5.813c-3.534,2.99 -6.02,6.258 -7.458,9.804c-1.438,3.546 -1.804,7.158 -1.099,10.837c0.705,3.679 2.487,7.208 5.347,10.588l-3.237,1.947l18.869,-15.963l8.326,9.841l-28.168,23.831l-7.041,-8.323c-5.043,-5.96 -8.131,-12.174 -9.265,-18.641c-1.134,-6.468 -0.476,-12.747 1.972,-18.838c2.448,-6.091 6.537,-11.56 12.266,-16.407c6.389,-5.405 13.217,-8.708 20.484,-9.91c7.267,-1.202 14.5,-0.281 21.698,2.761c7.199,3.043 13.894,8.224 20.087,15.544c4.728,5.589 8.163,11.26 10.304,17.011c2.141,5.752 3.078,11.384 2.811,16.896c-0.267,5.513 -1.646,10.711 -4.136,15.593c-2.49,4.882 -6.006,9.244 -10.547,13.086c-3.84,3.249 -7.895,5.716 -12.164,7.401c-4.269,1.685 -8.565,2.594 -12.889,2.729c-4.325,0.135 -8.518,-0.503 -12.581,-1.915c-4.063,-1.412 -7.8,-3.602 -11.21,-6.57l12.824,-10.849Z" style="fill:#002fa6;fill-rule:nonzero;"/><path d="M545.669,640.708l69.217,58.935l-22.584,26.525c-4.259,5.002 -8.581,8.497 -12.967,10.484c-4.385,1.987 -8.635,2.655 -12.749,2.005c-4.114,-0.65 -7.889,-2.437 -11.323,-5.361c-2.802,-2.386 -4.747,-4.969 -5.832,-7.747c-1.086,-2.779 -1.473,-5.607 -1.16,-8.485c0.313,-2.878 1.162,-5.678 2.548,-8.401l-0.676,-0.575c-2.221,2.353 -4.976,4.077 -8.264,5.172c-3.288,1.095 -6.787,1.307 -10.498,0.634c-3.711,-0.672 -7.314,-2.496 -10.811,-5.474c-3.596,-3.062 -6.078,-6.671 -7.444,-10.827c-1.366,-4.156 -1.387,-8.682 -0.063,-13.579c1.325,-4.897 4.235,-9.986 8.732,-15.267l23.874,-28.039Zm-0.219,21.456l-11.487,13.491c-3.871,4.547 -5.79,8.574 -5.757,12.081c0.034,3.507 1.427,6.433 4.181,8.778c2.055,1.749 4.337,2.818 6.848,3.207c2.51,0.388 5.04,0.055 7.59,-1c2.55,-1.055 4.922,-2.871 7.117,-5.448l11.786,-13.844l-20.278,-17.265Zm29.309,24.955l-10.566,12.41c-1.85,2.172 -3.109,4.463 -3.778,6.875c-0.67,2.411 -0.696,4.747 -0.08,7.009c0.616,2.262 1.937,4.256 3.965,5.983c2.682,2.283 5.691,3.22 9.027,2.812c3.337,-0.409 6.578,-2.46 9.724,-6.156l10.797,-12.68l-19.089,-16.253Z" style="fill:#002fa6;fill-rule:nonzero;"/><path d="M510.268,834.582l-9.382,13.545l-48.84,-33.827c-5.342,-3.7 -9.169,-8.218 -11.482,-13.553c-2.313,-5.335 -3.034,-11.066 -2.162,-17.194c0.871,-6.128 3.411,-12.231 7.62,-18.308c4.223,-6.096 9.049,-10.629 14.479,-13.6c5.431,-2.97 11.046,-4.306 16.847,-4.007c5.801,0.299 11.373,2.299 16.715,5.999l48.84,33.827l-9.383,13.546l-47.701,-33.038c-3.114,-2.157 -6.359,-3.389 -9.734,-3.697c-3.376,-0.308 -6.624,0.317 -9.744,1.874c-3.12,1.558 -5.864,4.047 -8.233,7.467c-2.376,3.43 -3.745,6.881 -4.108,10.352c-0.363,3.47 0.196,6.728 1.676,9.773c1.48,3.044 3.777,5.645 6.891,7.802l47.701,33.039Z" style="fill:#002fa6;fill-rule:nonzero;"/><path d="M428.606,922.717c3.601,1.51 7.083,1.444 10.446,-0.197c3.363,-1.642 6.226,-4.609 8.59,-8.902c1.656,-3.007 2.626,-5.829 2.909,-8.467c0.284,-2.637 -0.039,-4.96 -0.967,-6.967c-0.928,-2.008 -2.384,-3.565 -4.369,-4.672c-1.648,-0.934 -3.293,-1.348 -4.936,-1.243c-1.642,0.106 -3.247,0.585 -4.815,1.438c-1.567,0.853 -3.083,1.924 -4.546,3.213c-1.463,1.288 -2.842,2.648 -4.136,4.077l-5.977,6.438c-2.356,2.622 -4.894,4.999 -7.616,7.132c-2.722,2.133 -5.596,3.803 -8.623,5.012c-3.026,1.208 -6.18,1.754 -9.46,1.637c-3.28,-0.117 -6.649,-1.122 -10.108,-3.013c-4.671,-2.585 -8.118,-6.042 -10.342,-10.372c-2.224,-4.329 -3.09,-9.29 -2.599,-14.881c0.49,-5.591 2.489,-11.569 5.994,-17.936c3.409,-6.19 7.329,-11.033 11.761,-14.528c4.431,-3.496 9.192,-5.509 14.282,-6.041c5.09,-0.532 10.328,0.557 15.715,3.267l-7.812,14.185c-2.893,-1.323 -5.671,-1.74 -8.336,-1.251c-2.664,0.489 -5.122,1.7 -7.372,3.633c-2.25,1.933 -4.2,4.398 -5.85,7.394c-1.724,3.132 -2.766,6.149 -3.125,9.052c-0.359,2.904 -0.058,5.498 0.902,7.784c0.961,2.286 2.569,4.057 4.823,5.312c2.08,1.131 4.13,1.476 6.15,1.034c2.02,-0.441 4.079,-1.48 6.175,-3.116c2.097,-1.635 4.296,-3.684 6.598,-6.147l7.348,-7.75c5.294,-5.625 10.7,-9.395 16.22,-11.308c5.52,-1.913 11.131,-1.293 16.834,1.861c4.702,2.576 8.111,6.107 10.225,10.592c2.115,4.485 2.939,9.472 2.474,14.962c-0.466,5.491 -2.232,11.02 -5.298,16.588c-3.112,5.651 -6.823,10.074 -11.132,13.268c-4.31,3.195 -8.862,5.054 -13.658,5.579c-4.796,0.525 -9.465,-0.406 -14.009,-2.794l7.64,-13.873Z" style="fill:#002fa6;fill-rule:nonzero;"/><path d="M415.155,1007.63l-82.812,-37.505l6.798,-15.01l82.812,37.504l-6.798,15.011Z" style="fill:#002fa6;fill-rule:nonzero;"/><path d="M370.167,1124.07l-85.633,-30.522l4.912,-13.781l72.727,-19.581l0.25,-0.703l-58.336,-20.792l5.532,-15.522l85.633,30.522l-4.96,13.915l-72.725,19.469l-0.274,0.77l58.37,20.804l-5.496,15.421Z" style="fill:#002fa6;fill-rule:nonzero;"/><path d="M267.516,1151.71l88.308,21.591l-14.043,57.435l-13.419,-3.281l10.129,-41.428l-23.974,-5.862l-9.403,38.462l-13.419,-3.281l9.403,-38.462l-24.077,-5.886l-10.213,41.773l-13.419,-3.28l14.127,-57.781Z" style="fill:#002fa6;fill-rule:nonzero;"/><path d="M300.548,1323.4c3.901,0.152 7.14,-1.129 9.714,-3.845c2.575,-2.716 4.217,-6.498 4.927,-11.347c0.497,-3.397 0.416,-6.38 -0.243,-8.95c-0.659,-2.569 -1.775,-4.632 -3.347,-6.187c-1.573,-1.555 -3.483,-2.503 -5.73,-2.844c-1.871,-0.297 -3.557,-0.109 -5.058,0.566c-1.501,0.674 -2.837,1.686 -4.006,3.034c-1.169,1.348 -2.213,2.882 -3.132,4.602c-0.919,1.72 -1.734,3.476 -2.444,5.268l-3.343,8.124c-1.287,3.281 -2.832,6.397 -4.634,9.349c-1.801,2.951 -3.908,5.523 -6.319,7.716c-2.411,2.192 -5.174,3.808 -8.287,4.848c-3.113,1.04 -6.62,1.28 -10.522,0.721c-5.281,-0.785 -9.721,-2.815 -13.322,-6.09c-3.6,-3.276 -6.149,-7.618 -7.649,-13.026c-1.499,-5.409 -1.723,-11.709 -0.671,-18.9c1.024,-6.992 2.998,-12.902 5.924,-17.728c2.925,-4.827 6.678,-8.381 11.259,-10.663c4.581,-2.282 9.869,-3.098 15.863,-2.447l-2.345,16.023c-3.173,-0.226 -5.922,0.357 -8.246,1.749c-2.324,1.392 -4.201,3.387 -5.631,5.986c-1.43,2.599 -2.393,5.591 -2.888,8.976c-0.518,3.537 -0.436,6.728 0.245,9.573c0.681,2.845 1.872,5.17 3.573,6.974c1.701,1.804 3.827,2.899 6.379,3.284c2.344,0.331 4.385,-0.064 6.122,-1.186c1.737,-1.121 3.301,-2.815 4.692,-5.082c1.39,-2.267 2.732,-4.957 4.025,-8.069l4.166,-9.834c2.987,-7.124 6.73,-12.549 11.229,-16.275c4.499,-3.726 9.972,-5.112 16.418,-4.157c5.307,0.765 9.737,2.878 13.289,6.337c3.552,3.46 6.072,7.842 7.56,13.147c1.488,5.306 1.771,11.103 0.851,17.392c-0.934,6.384 -2.86,11.827 -5.777,16.329c-2.917,4.502 -6.529,7.839 -10.836,10.011c-4.308,2.172 -9.008,2.936 -14.1,2.292l2.294,-15.671Z" style="fill:#002fa6;fill-rule:nonzero;"/><path d="M291.136,1437.67c3.899,-0.223 6.999,-1.81 9.301,-4.76c2.302,-2.951 3.573,-6.873 3.814,-11.768c0.168,-3.429 -0.199,-6.39 -1.101,-8.885c-0.903,-2.494 -2.212,-4.44 -3.926,-5.837c-1.715,-1.397 -3.707,-2.157 -5.977,-2.28c-1.89,-0.117 -3.55,0.233 -4.98,1.048c-1.429,0.816 -2.661,1.951 -3.696,3.405c-1.034,1.454 -1.926,3.081 -2.676,4.881c-0.749,1.8 -1.391,3.626 -1.927,5.479l-2.547,8.408c-0.966,3.389 -2.204,6.639 -3.714,9.75c-1.51,3.111 -3.36,5.873 -5.55,8.287c-2.189,2.414 -4.784,4.287 -7.782,5.621c-2.999,1.334 -6.467,1.91 -10.405,1.728c-5.332,-0.274 -9.947,-1.868 -13.845,-4.783c-3.898,-2.914 -6.853,-6.991 -8.864,-12.231c-2.012,-5.239 -2.84,-11.489 -2.483,-18.748c0.347,-7.058 1.745,-13.13 4.193,-18.215c2.449,-5.085 5.844,-8.984 10.184,-11.695c4.341,-2.711 9.526,-4.03 15.555,-3.959l-0.796,16.174c-3.18,0.081 -5.86,0.925 -8.039,2.533c-2.18,1.609 -3.857,3.775 -5.031,6.5c-1.174,2.724 -1.845,5.794 -2.013,9.211c-0.176,3.57 0.212,6.739 1.163,9.506c0.952,2.766 2.36,4.966 4.227,6.598c1.866,1.633 4.088,2.518 6.664,2.657c2.365,0.104 4.359,-0.485 5.98,-1.768c1.622,-1.284 3.016,-3.12 4.182,-5.51c1.167,-2.39 2.244,-5.196 3.232,-8.418l3.203,-10.189c2.288,-7.378 5.493,-13.137 9.614,-17.278c4.12,-4.141 9.435,-6.045 15.943,-5.714c5.356,0.252 9.968,1.929 13.836,5.032c3.868,3.102 6.797,7.223 8.787,12.36c1.991,5.138 2.83,10.881 2.518,17.23c-0.317,6.444 -1.711,12.046 -4.182,16.808c-2.471,4.761 -5.747,8.429 -9.826,11.005c-4.079,2.576 -8.683,3.788 -13.814,3.636l0.778,-15.819Z" style="fill:#002fa6;fill-rule:nonzero;"/><path d="M224.58,1505.94l90.82,-4.034l2.623,59.069l-13.8,0.613l-1.892,-42.607l-24.656,1.095l1.756,39.555l-13.8,0.613l-1.757,-39.555l-24.762,1.1l1.908,42.961l-13.801,0.613l-2.639,-59.423Z" style="fill:#002fa6;fill-rule:nonzero;"/><path d="M304.357,1661.62c3.788,-0.945 6.539,-3.08 8.252,-6.408c1.713,-3.327 2.232,-7.417 1.558,-12.272c-0.472,-3.4 -1.384,-6.241 -2.735,-8.524c-1.351,-2.283 -2.999,-3.952 -4.944,-5.005c-1.944,-1.053 -4.043,-1.429 -6.296,-1.129c-1.879,0.238 -3.445,0.89 -4.698,1.957c-1.253,1.067 -2.252,2.412 -2.998,4.033c-0.746,1.621 -1.319,3.386 -1.721,5.294c-0.401,1.908 -0.692,3.822 -0.874,5.742l-0.938,8.734c-0.319,3.51 -0.931,6.934 -1.835,10.272c-0.905,3.337 -2.209,6.395 -3.911,9.174c-1.702,2.779 -3.903,5.103 -6.601,6.972c-2.698,1.869 -5.999,3.08 -9.901,3.634c-5.29,0.723 -10.121,0.015 -14.493,-2.124c-4.372,-2.138 -8.034,-5.594 -10.986,-10.368c-2.952,-4.774 -4.927,-10.76 -5.927,-17.958c-0.973,-7 -0.729,-13.226 0.731,-18.678c1.459,-5.452 4.069,-9.914 7.83,-13.385c3.76,-3.472 8.609,-5.733 14.546,-6.785l2.228,16.04c-3.11,0.671 -5.586,1.999 -7.428,3.985c-1.843,1.986 -3.087,4.427 -3.734,7.322c-0.646,2.895 -0.734,6.037 -0.264,9.425c0.492,3.541 1.463,6.582 2.912,9.123c1.449,2.541 3.243,4.44 5.38,5.697c2.138,1.257 4.485,1.713 7.043,1.37c2.343,-0.337 4.192,-1.287 5.546,-2.85c1.355,-1.562 2.383,-3.626 3.084,-6.191c0.701,-2.565 1.238,-5.523 1.609,-8.873l1.251,-10.607c0.876,-7.674 2.953,-13.929 6.231,-18.765c3.279,-4.835 8.146,-7.695 14.602,-8.58c5.309,-0.749 10.153,0.04 14.531,2.369c4.377,2.329 8.022,5.832 10.933,10.51c2.912,4.677 4.805,10.164 5.68,16.46c0.887,6.391 0.56,12.155 -0.982,17.292c-1.542,5.138 -4.077,9.352 -7.606,12.642c-3.528,3.289 -7.827,5.337 -12.896,6.142l-2.179,-15.687Z" style="fill:#002fa6;fill-rule:nonzero;"/><path d="M347.339,1843.39c3.592,-1.53 5.972,-4.073 7.138,-7.629c1.167,-3.555 1.035,-7.677 -0.397,-12.364c-1.002,-3.283 -2.351,-5.945 -4.045,-7.987c-1.694,-2.041 -3.584,-3.428 -5.67,-4.162c-2.087,-0.733 -4.219,-0.774 -6.396,-0.122c-1.818,0.531 -3.262,1.422 -4.331,2.673c-1.069,1.252 -1.843,2.737 -2.324,4.456c-0.481,1.718 -0.769,3.551 -0.865,5.499c-0.095,1.947 -0.081,3.883 0.042,5.807l0.452,8.774c0.238,3.516 0.174,6.994 -0.193,10.432c-0.367,3.438 -1.172,6.664 -2.415,9.677c-1.243,3.012 -3.049,5.654 -5.419,7.925c-2.37,2.271 -5.438,3.987 -9.205,5.149c-5.109,1.549 -9.991,1.611 -14.646,0.189c-4.654,-1.422 -8.816,-4.258 -12.483,-8.506c-3.668,-4.248 -6.563,-9.848 -8.685,-16.799c-2.064,-6.759 -2.805,-12.945 -2.224,-18.559c0.582,-5.614 2.455,-10.432 5.621,-14.453c3.166,-4.021 7.598,-7.018 13.295,-8.993l4.729,15.488c-2.965,1.152 -5.201,2.854 -6.707,5.106c-1.506,2.252 -2.35,4.858 -2.532,7.819c-0.182,2.961 0.227,6.077 1.226,9.349c1.044,3.419 2.482,6.268 4.314,8.549c1.832,2.281 3.902,3.874 6.211,4.778c2.309,0.903 4.699,0.984 7.171,0.242c2.26,-0.703 3.936,-1.932 5.027,-3.689c1.092,-1.756 1.781,-3.956 2.069,-6.6c0.288,-2.644 0.351,-5.649 0.19,-9.015l-0.437,-10.672c-0.346,-7.716 0.719,-14.221 3.194,-19.512c2.474,-5.292 6.83,-8.884 13.065,-10.776c5.125,-1.577 10.033,-1.561 14.723,0.048c4.69,1.609 8.842,4.494 12.454,8.654c3.613,4.16 6.348,9.28 8.204,15.359c1.884,6.17 2.47,11.914 1.758,17.231c-0.713,5.316 -2.552,9.877 -5.518,13.682c-2.965,3.805 -6.887,6.505 -11.766,8.1l-4.625,-15.148Z" style="fill:#002fa6;fill-rule:nonzero;"/><path d="M413.727,1947.84l6.382,15.191l-54.773,23.011c-5.991,2.517 -11.858,3.318 -17.6,2.401c-5.742,-0.916 -10.963,-3.388 -15.663,-7.416c-4.7,-4.028 -8.481,-9.45 -11.345,-16.265c-2.872,-6.837 -4.101,-13.343 -3.688,-19.519c0.413,-6.176 2.304,-11.63 5.674,-16.361c3.369,-4.732 8.049,-8.356 14.04,-10.873l54.774,-23.011l6.382,15.192l-53.496,22.475c-3.492,1.467 -6.275,3.541 -8.349,6.222c-2.073,2.682 -3.292,5.757 -3.655,9.225c-0.363,3.468 0.261,7.12 1.873,10.956c1.616,3.847 3.79,6.856 6.522,9.027c2.732,2.171 5.78,3.45 9.143,3.838c3.363,0.388 6.791,-0.151 10.283,-1.618l53.496,-22.475Z" style="fill:#002fa6;fill-rule:nonzero;"/><path d="M444.232,2064.07c3.208,-2.227 5.022,-5.2 5.443,-8.918c0.421,-3.719 -0.545,-7.728 -2.898,-12.027c-1.648,-3.011 -3.508,-5.345 -5.581,-7c-2.073,-1.655 -4.205,-2.63 -6.397,-2.925c-2.192,-0.295 -4.288,0.098 -6.288,1.178c-1.672,0.889 -2.905,2.054 -3.698,3.497c-0.793,1.442 -1.25,3.053 -1.372,4.834c-0.122,1.78 -0.032,3.634 0.269,5.56c0.302,1.926 0.708,3.819 1.22,5.678l2.222,8.5c0.947,3.395 1.589,6.813 1.928,10.254c0.338,3.441 0.204,6.763 -0.402,9.965c-0.605,3.202 -1.838,6.156 -3.698,8.86c-1.86,2.704 -4.516,5.008 -7.968,6.91c-4.689,2.553 -9.457,3.605 -14.303,3.157c-4.847,-0.449 -9.497,-2.381 -13.95,-5.797c-4.453,-3.416 -8.424,-8.311 -11.913,-14.687c-3.392,-6.199 -5.373,-12.107 -5.943,-17.722c-0.57,-5.615 0.288,-10.713 2.572,-15.292c2.284,-4.58 6.015,-8.414 11.193,-11.504l7.774,14.206c-2.67,1.73 -4.514,3.85 -5.532,6.361c-1.018,2.51 -1.315,5.234 -0.893,8.17c0.423,2.936 1.455,5.905 3.097,8.905c1.716,3.136 3.703,5.635 5.959,7.497c2.257,1.862 4.608,3.001 7.052,3.418c2.444,0.416 4.801,0.01 7.07,-1.218c2.071,-1.147 3.463,-2.691 4.175,-4.632c0.712,-1.942 0.941,-4.236 0.687,-6.883c-0.255,-2.647 -0.803,-5.602 -1.644,-8.866l-2.593,-10.361c-1.904,-7.486 -2.181,-14.071 -0.832,-19.755c1.35,-5.684 4.886,-10.084 10.608,-13.202c4.698,-2.585 9.507,-3.565 14.426,-2.94c4.919,0.624 9.569,2.606 13.951,5.946c4.382,3.341 8.098,7.799 11.15,13.375c3.097,5.66 4.836,11.165 5.217,16.516c0.381,5.351 -0.495,10.19 -2.627,14.517c-2.132,4.328 -5.424,7.768 -9.878,10.319l-7.603,-13.894Z" style="fill:#002fa6;fill-rule:nonzero;"/><path d="M484.743,2110.56l11.42,-7.774l40.806,59.943l-11.419,7.774l-15.807,-23.22l-63.729,43.384l-9.193,-13.504l63.729,-43.384l-15.807,-23.219Z" style="fill:#002fa6;fill-rule:nonzero;"/><path d="M501.202,2265.01l-11.286,-13.478l90.263,-33.808l13.042,15.574l-49.134,82.924l-11.286,-13.478l39.833,-64.991l-0.456,-0.544l-70.976,27.801Zm27.7,-22.455l30.778,36.755l-10.155,8.504l-30.779,-36.755l10.156,-8.504Z" style="fill:#002fa6;fill-rule:nonzero;"/><path d="M653.42,2298.71l-64.972,63.584l-11.526,-11.776l64.973,-63.585l11.525,11.777Z" style="fill:#002fa6;fill-rule:nonzero;"/><path d="M745.64,2382.99l-59.565,68.677l-11.052,-9.586l8.198,-74.869l-0.563,-0.489l-40.578,46.786l-12.448,-10.797l59.565,-68.677l11.16,9.68l-8.302,74.826l0.617,0.535l40.601,-46.812l12.367,10.726Z" style="fill:#002fa6;fill-rule:nonzero;"/><path d="M743.58,2495.55l-14.429,-10.042l78.221,-56.32l16.673,11.604l-25.639,92.914l-14.429,-10.041l21.373,-73.17l-0.583,-0.406l-61.187,45.461Zm20.832,-28.94l39.349,27.385l-7.566,10.872l-39.349,-27.385l7.566,-10.872Z" style="fill:#002fa6;fill-rule:nonzero;"/><path d="M838.748,2558.46l44.362,-79.35l30.407,17c5.735,3.206 10.003,6.766 12.804,10.682c2.801,3.916 4.283,7.954 4.445,12.117c0.161,4.162 -0.858,8.212 -3.059,12.148c-1.796,3.213 -3.952,5.622 -6.466,7.227c-2.515,1.605 -5.214,2.534 -8.098,2.786c-2.884,0.253 -5.796,-0.036 -8.736,-0.866l-0.433,0.775c2.74,1.721 4.966,4.088 6.679,7.101c1.714,3.012 2.601,6.404 2.663,10.174c0.061,3.771 -1.028,7.661 -3.269,11.669c-2.305,4.123 -5.363,7.258 -9.174,9.406c-3.812,2.148 -8.248,3.048 -13.309,2.7c-5.06,-0.347 -10.618,-2.213 -16.673,-5.598l-32.143,-17.971Zm21.089,-3.954l15.467,8.646c5.212,2.914 9.535,4.014 12.969,3.3c3.434,-0.715 6.033,-2.65 7.798,-5.807c1.317,-2.355 1.922,-4.802 1.815,-7.34c-0.107,-2.538 -0.925,-4.955 -2.455,-7.251c-1.531,-2.297 -3.773,-4.271 -6.728,-5.923l-15.87,-8.872l-12.996,23.247Zm18.784,-33.6l14.227,7.954c2.49,1.392 4.983,2.182 7.478,2.37c2.495,0.188 4.792,-0.24 6.892,-1.284c2.099,-1.043 3.798,-2.728 5.098,-5.052c1.718,-3.074 2.053,-6.208 1.004,-9.401c-1.049,-3.194 -3.692,-5.975 -7.928,-8.343l-14.537,-8.127l-12.234,21.883Z" style="fill:#002fa6;fill-rule:nonzero;"/><path d="M947.058,2615.79l36.76,-83.146l15.071,6.663l-31.174,70.511l36.636,16.198l-5.586,12.634l-51.707,-22.86Z" style="fill:#002fa6;fill-rule:nonzero;"/><path d="M1072.95,2570.63l17.623,5.862l8.393,45.194l0.876,0.292l33.794,-31.16l17.623,5.863l-49.362,43.645l-10.705,32.18l-15.568,-5.179l10.705,-32.18l-13.379,-64.517Z" style="fill:#002fa6;fill-rule:nonzero;"/><path d="M1257.85,2683.69c-2.649,-0.484 -4.75,-1.831 -6.301,-4.04c-1.552,-2.209 -2.068,-4.65 -1.549,-7.323c0.45,-2.625 1.792,-4.696 4.024,-6.213c2.233,-1.517 4.674,-2.033 7.323,-1.549c2.562,0.469 4.626,1.809 6.192,4.021c1.566,2.211 2.124,4.63 1.674,7.255c-0.354,1.77 -1.108,3.302 -2.262,4.595c-1.154,1.293 -2.53,2.238 -4.128,2.833c-1.598,0.595 -3.256,0.736 -4.973,0.421Z" style="fill:#002fa6;fill-rule:nonzero;"/><path d="M1396.82,2640.92l20.162,0.592l25.045,66.636l1.065,0.031l28.909,-65.053l20.162,0.591l-2.666,90.87l-15.832,-0.464l1.832,-62.437l-0.816,-0.024l-26.955,61.415l-11.784,-0.345l-23.303,-63.033l-0.817,-0.024l-1.836,62.58l-15.832,-0.465l2.666,-90.87Z" style="fill:#002fa6;fill-rule:nonzero;"/><path d="M1558.38,2731.52l-17.52,1.436l24.498,-93.222l20.246,-1.659l39.35,87.988l-17.52,1.436l-30.076,-70.043l-0.708,0.058l-18.27,74.006Zm-2.346,-35.581l47.78,-3.916l1.082,13.202l-47.78,3.916l-1.082,-13.202Z" style="fill:#002fa6;fill-rule:nonzero;"/><path d="M1702.13,2713.98l-30.309,5.611l-16.548,-89.391l30.903,-5.72c8.881,-1.644 16.843,-1.275 23.887,1.108c7.044,2.383 12.9,6.586 17.567,12.611c4.666,6.025 7.858,13.676 9.576,22.953c1.723,9.311 1.482,17.633 -0.724,24.967c-2.206,7.333 -6.213,13.39 -12.021,18.17c-5.809,4.78 -13.252,8.01 -22.331,9.691Zm-16.698,-11.391l13.338,-2.47c6.204,-1.148 11.178,-3.248 14.922,-6.301c3.745,-3.053 6.24,-7.051 7.486,-11.994c1.246,-4.944 1.234,-10.843 -0.035,-17.699c-1.263,-6.82 -3.355,-12.303 -6.277,-16.448c-2.923,-4.145 -6.641,-6.966 -11.155,-8.462c-4.515,-1.497 -9.798,-1.685 -15.851,-0.565l-13.792,2.554l11.364,61.385Z" style="fill:#002fa6;fill-rule:nonzero;"/><path d="M1799.99,2692.65l-25.299,-87.318l56.791,-16.455l3.844,13.269l-40.964,11.869l6.869,23.705l38.03,-11.019l3.845,13.269l-38.031,11.019l6.898,23.807l41.305,-11.968l3.845,13.268l-57.133,16.554Z" style="fill:#002fa6;fill-rule:nonzero;"/><path d="M1959.54,2539.28l37.013,83.033l-15.05,6.709l-37.014,-83.033l15.051,-6.709Z" style="fill:#002fa6;fill-rule:nonzero;"/><path d="M2070.61,2482.05l43.745,79.692l-12.825,7.04l-67.374,-33.665l-0.654,0.359l29.801,54.29l-14.445,7.929l-43.745,-79.692l12.951,-7.109l67.298,33.747l0.716,-0.393l-29.818,-54.321l14.35,-7.877Z" style="fill:#002fa6;fill-rule:nonzero;"/><path d="M2226.52,2403.47c-2.724,-2.797 -5.954,-4.098 -9.691,-3.902c-3.737,0.196 -7.533,1.807 -11.387,4.834c-2.699,2.121 -4.695,4.339 -5.987,6.656c-1.292,2.317 -1.904,4.581 -1.834,6.791c0.069,2.211 0.801,4.213 2.195,6.008c1.152,1.504 2.504,2.529 4.057,3.074c1.553,0.544 3.218,0.731 4.994,0.559c1.776,-0.172 3.589,-0.566 5.44,-1.18c1.851,-0.614 3.651,-1.326 5.401,-2.136l8.018,-3.589c3.193,-1.492 6.459,-2.687 9.798,-3.587c3.339,-0.899 6.638,-1.313 9.896,-1.242c3.258,0.072 6.374,0.802 9.347,2.192c2.973,1.39 5.682,3.632 8.126,6.725c3.289,4.205 5.11,8.735 5.464,13.589c0.355,4.855 -0.787,9.759 -3.425,14.713c-2.637,4.954 -6.814,9.676 -12.529,14.165c-5.558,4.365 -11.059,7.29 -16.505,8.775c-5.445,1.484 -10.614,1.477 -15.507,-0.024c-4.893,-1.5 -9.288,-4.551 -13.187,-9.15l12.736,-10.003c2.145,2.349 4.539,3.819 7.183,4.411c2.644,0.591 5.379,0.437 8.206,-0.462c2.827,-0.9 5.585,-2.406 8.275,-4.519c2.812,-2.208 4.95,-4.578 6.416,-7.11c1.465,-2.532 2.203,-5.037 2.212,-7.517c0.009,-2.48 -0.779,-4.738 -2.363,-6.774c-1.472,-1.854 -3.224,-2.973 -5.256,-3.357c-2.032,-0.383 -4.332,-0.232 -6.901,0.454c-2.57,0.686 -5.395,1.712 -8.476,3.079l-9.794,4.26c-7.071,3.109 -13.521,4.464 -19.349,4.067c-5.829,-0.397 -10.751,-3.161 -14.767,-8.293c-3.321,-4.21 -5.078,-8.792 -5.271,-13.747c-0.193,-4.955 0.998,-9.868 3.573,-14.739c2.575,-4.871 6.362,-9.27 11.361,-13.196c5.074,-3.985 10.218,-6.605 15.434,-7.86c5.215,-1.256 10.132,-1.187 14.751,0.204c4.619,1.392 8.553,4.075 11.802,8.048l-12.456,9.783Z" style="fill:#002fa6;fill-rule:nonzero;"/><path d="M2272.19,2330.54l61.51,66.94l-12.133,11.149l-61.51,-66.94l12.133,-11.149Z" style="fill:#002fa6;fill-rule:nonzero;"/><path d="M2359.32,2241.02l66.768,61.697l-9.929,10.745l-74.574,-10.55l-0.507,0.547l45.486,42.031l-11.183,12.102l-66.768,-61.697l10.026,-10.85l74.527,10.653l0.555,-0.6l-45.511,-42.054l11.11,-12.024Z" style="fill:#002fa6;fill-rule:nonzero;"/><path d="M2451.43,2170.26c-2.385,-0.847 -4.726,-1.325 -7.022,-1.433c-2.296,-0.108 -4.522,0.158 -6.676,0.797c-2.154,0.638 -4.197,1.67 -6.131,3.095c-1.933,1.425 -3.716,3.238 -5.349,5.439c-2.912,3.927 -4.515,8.154 -4.808,12.682c-0.293,4.528 0.817,9.077 3.331,13.646c2.514,4.568 6.514,8.887 12,12.956c5.505,4.082 10.814,6.675 15.928,7.778c5.114,1.103 9.81,0.847 14.088,-0.77c4.279,-1.616 7.931,-4.464 10.956,-8.542c2.757,-3.718 4.431,-7.467 5.021,-11.248c0.59,-3.781 0.121,-7.382 -1.406,-10.802c-1.527,-3.42 -4.068,-6.449 -7.624,-9.086l2.706,-2.635l-14.723,19.851l-10.354,-7.679l21.979,-29.635l8.756,6.494c6.271,4.651 10.697,9.995 13.278,16.032c2.582,6.037 3.377,12.3 2.384,18.79c-0.992,6.489 -3.723,12.747 -8.193,18.775c-4.986,6.722 -10.878,11.498 -17.679,14.328c-6.8,2.83 -14.052,3.586 -21.755,2.268c-7.703,-1.317 -15.405,-4.832 -23.106,-10.544c-5.88,-4.361 -10.519,-9.096 -13.918,-14.207c-3.398,-5.11 -5.597,-10.379 -6.596,-15.807c-1,-5.428 -0.845,-10.803 0.464,-16.125c1.309,-5.322 3.735,-10.372 7.278,-15.149c2.997,-4.041 6.381,-7.369 10.152,-9.984c3.771,-2.616 7.746,-4.483 11.925,-5.602c4.179,-1.119 8.408,-1.456 12.686,-1.009c4.278,0.446 8.416,1.724 12.414,3.835l-10.006,13.491Z" style="fill:#002fa6;fill-rule:nonzero;"/><path d="M2548.2,2136.28l-8.929,15.142l-62.037,-73.769l10.319,-17.497l94.577,18.587l-8.929,15.142l-74.568,-15.816l-0.361,0.612l49.928,57.599Zm-30.422,-18.6l24.351,-41.294l11.41,6.728l-24.352,41.295l-11.409,-6.729Z" style="fill:#002fa6;fill-rule:nonzero;"/><path d="M2603.71,2036.74l-82.444,-38.309l14.381,-30.949c2.941,-6.328 6.591,-11.098 10.951,-14.309c4.361,-3.211 9.113,-4.966 14.257,-5.264c5.145,-0.299 10.344,0.773 15.599,3.215c5.276,2.451 9.452,5.747 12.527,9.888c3.076,4.141 4.775,8.929 5.097,14.365c0.323,5.437 -0.994,11.335 -3.949,17.695l-9.517,20.482l-12.27,-5.701l8.589,-18.485c1.724,-3.709 2.489,-7.041 2.295,-9.996c-0.193,-2.955 -1.154,-5.524 -2.884,-7.708c-1.729,-2.184 -4.051,-3.953 -6.966,-5.307c-2.925,-1.359 -5.768,-1.99 -8.528,-1.893c-2.761,0.098 -5.318,1.042 -7.674,2.832c-2.355,1.79 -4.402,4.555 -6.141,8.297l-6.359,13.686l69.98,32.517l-6.944,14.944Z" style="fill:#002fa6;fill-rule:nonzero;"/><path d="M2635.9,1834.76c9.262,3.205 16.588,7.672 21.977,13.401c5.389,5.729 8.802,12.174 10.239,19.334c1.436,7.161 0.856,14.494 -1.742,22.001c-2.605,7.528 -6.689,13.658 -12.254,18.391c-5.564,4.732 -12.233,7.682 -20.009,8.849c-7.775,1.167 -16.283,0.152 -25.523,-3.045c-9.262,-3.205 -16.589,-7.669 -21.98,-13.392c-5.391,-5.724 -8.806,-12.163 -10.244,-19.318c-1.438,-7.155 -0.855,-14.497 1.75,-22.025c2.597,-7.507 6.673,-13.631 12.228,-18.372c5.555,-4.741 12.221,-7.699 19.999,-8.872c7.777,-1.173 16.297,-0.157 25.559,3.048Zm-5.411,15.639c-6.522,-2.257 -12.376,-3.148 -17.564,-2.672c-5.187,0.475 -9.555,2.104 -13.105,4.888c-3.549,2.783 -6.131,6.507 -7.745,11.171c-1.614,4.665 -1.886,9.188 -0.816,13.57c1.07,4.382 3.498,8.362 7.282,11.942c3.784,3.58 8.937,6.498 15.458,8.755c6.522,2.256 12.377,3.147 17.564,2.671c5.187,-0.475 9.556,-2.104 13.105,-4.887c3.549,-2.784 6.131,-6.508 7.745,-11.172c1.614,-4.665 1.886,-9.188 0.816,-13.57c-1.07,-4.381 -3.497,-8.362 -7.281,-11.942c-3.785,-3.58 -8.937,-6.498 -15.459,-8.754Z" style="fill:#002fa6;fill-rule:nonzero;"/><path d="M2693.77,1796.43l-88.571,-20.486l7.69,-33.249c1.569,-6.781 4.073,-12.216 7.512,-16.305c3.44,-4.088 7.562,-6.828 12.367,-8.22c4.805,-1.391 10.03,-1.434 15.675,-0.128c5.668,1.311 10.306,3.65 13.913,7.017c3.608,3.368 6.003,7.649 7.186,12.843c1.183,5.194 0.986,11.199 -0.59,18.015l-5.474,23.665l-13.286,-3.073l4.977,-21.52c0.918,-3.967 1.114,-7.349 0.589,-10.147c-0.526,-2.797 -1.724,-5.055 -3.596,-6.772c-1.872,-1.718 -4.373,-2.939 -7.504,-3.663c-3.143,-0.727 -5.972,-0.734 -8.487,-0.022c-2.516,0.712 -4.658,2.206 -6.427,4.482c-1.768,2.276 -3.115,5.415 -4.041,9.416l-3.401,14.704l75.181,17.388l-3.713,16.055Zm-29.547,-55.056l45.207,-12.653l-4.145,17.922l-45.111,12.237l4.049,-17.506Z" style="fill:#002fa6;fill-rule:nonzero;"/><path d="M2718.49,1677.88l-90.091,-12.17l7.916,-58.595l13.69,1.849l-5.71,42.265l24.458,3.305l5.301,-39.238l13.69,1.849l-5.301,39.238l24.563,3.318l5.757,-42.617l13.69,1.85l-7.963,58.946Z" style="fill:#002fa6;fill-rule:nonzero;"/><path d="M2703.75,1476.93c0.005,2.693 -0.938,5.003 -2.828,6.93c-1.891,1.926 -4.197,2.878 -6.92,2.853c-2.663,0.034 -4.944,-0.909 -6.841,-2.829c-1.897,-1.92 -2.848,-4.227 -2.853,-6.92c-0.005,-2.604 0.938,-4.877 2.829,-6.818c1.89,-1.942 4.167,-2.93 6.83,-2.964c1.805,0.026 3.449,0.489 4.93,1.389c1.481,0.9 2.66,2.082 3.535,3.545c0.876,1.463 1.315,3.068 1.318,4.814Z" style="fill:#002fa6;fill-rule:nonzero;"/><path d="M2725.96,1334.36l-90.007,12.774l-4.795,-33.789c-0.981,-6.908 -0.517,-12.897 1.391,-17.965c1.908,-5.068 4.938,-9.128 9.09,-12.18c4.151,-3.052 9.096,-4.985 14.833,-5.799c5.76,-0.818 11.057,-0.328 15.892,1.47c4.834,1.798 8.867,4.889 12.098,9.272c3.231,4.384 5.34,10.047 6.325,16.991l3.174,22.361l-13.396,1.901l-2.864,-20.181c-0.575,-4.049 -1.748,-7.26 -3.519,-9.633c-1.772,-2.373 -3.977,-4.004 -6.617,-4.894c-2.64,-0.889 -5.551,-1.108 -8.733,-0.657c-3.193,0.454 -5.921,1.473 -8.183,3.058c-2.262,1.585 -3.893,3.77 -4.894,6.554c-1,2.784 -1.211,6.219 -0.631,10.303l2.12,14.942l76.401,-10.843l2.315,16.315Z" style="fill:#002fa6;fill-rule:nonzero;"/><path d="M2703.69,1203.79l4.185,17.074l-95.921,-9.468l-4.836,-19.73l80.67,-52.752l4.185,17.073l-64.414,40.761l0.169,0.689l75.962,6.353Zm-34.764,7.936l-11.413,-46.562l12.865,-3.153l11.413,46.562l-12.865,3.153Z" style="fill:#002fa6;fill-rule:nonzero;"/><path d="M2673.89,1093.85l-85.744,30.207l-11.34,-32.188c-2.318,-6.581 -3.04,-12.544 -2.165,-17.888c0.875,-5.344 3.048,-9.92 6.52,-13.728c3.471,-3.809 7.939,-6.675 13.405,-8.601c5.487,-1.933 10.777,-2.493 15.87,-1.68c5.094,0.813 9.655,3.051 13.685,6.714c4.029,3.663 7.209,8.803 9.54,15.418l7.504,21.301l-12.761,4.496l-6.773,-19.225c-1.359,-3.857 -3.14,-6.775 -5.343,-8.754c-2.203,-1.979 -4.686,-3.145 -7.449,-3.499c-2.764,-0.353 -5.661,0.004 -8.692,1.072c-3.042,1.072 -5.517,2.607 -7.423,4.606c-1.906,1.998 -3.077,4.461 -3.511,7.387c-0.434,2.927 0.035,6.336 1.405,10.227l5.015,14.234l72.781,-25.641l5.476,15.542Z" style="fill:#002fa6;fill-rule:nonzero;"/><path d="M2631.22,980.951l-82.523,38.136l-24.804,-53.674l12.54,-5.794l17.891,38.715l22.404,-10.353l-16.609,-35.943l12.539,-5.795l16.61,35.943l22.5,-10.398l-18.04,-39.037l12.54,-5.795l24.952,53.995Z" style="fill:#002fa6;fill-rule:nonzero;"/><path d="M2580.29,876.685l-78.455,45.927l-17.24,-29.452c-3.517,-6.006 -5.429,-11.677 -5.736,-17.011c-0.307,-5.334 0.808,-10.156 3.346,-14.467c2.538,-4.311 6.307,-7.93 11.307,-10.858c5.021,-2.939 9.999,-4.423 14.934,-4.452c4.934,-0.029 9.615,1.439 14.042,4.402c4.427,2.964 8.407,7.465 11.941,13.502l12.271,20.962l-11.769,6.889l-11.159,-19.062c-2.057,-3.514 -4.236,-6.107 -6.539,-7.78c-2.303,-1.673 -4.724,-2.491 -7.265,-2.455c-2.54,0.037 -5.197,0.867 -7.97,2.49c-2.784,1.63 -4.845,3.567 -6.185,5.812c-1.34,2.246 -1.871,4.803 -1.594,7.672c0.277,2.869 1.453,6.076 3.528,9.62l7.624,13.024l66.595,-38.983l8.324,14.22Zm-59.285,-19.735l24.176,-40.24l9.293,15.875l-24.391,39.872l-9.078,-15.507Z" style="fill:#002fa6;fill-rule:nonzero;"/><path d="M2464.59,702.515l11.16,13.582l-90.575,32.965l-12.896,-15.695l49.905,-82.461l11.16,13.582l-40.438,64.617l0.451,0.549l71.233,-27.139Zm-27.908,22.196l-30.435,-37.041l10.235,-8.409l30.434,37.041l-10.234,8.409Z" style="fill:#002fa6;fill-rule:nonzero;"/><path d="M2273.08,627.837l64.103,-64.461l10.374,10.316l-13.277,74.137l0.529,0.526l43.669,-43.914l11.684,11.619l-64.102,64.462l-10.476,-10.417l13.378,-74.087l-0.579,-0.576l-43.695,43.939l-11.608,-11.544Z" style="fill:#002fa6;fill-rule:nonzero;"/><path d="M2268,503.778l24.055,19.273l-56.844,70.945l-24.526,-19.651c-7.048,-5.647 -11.973,-11.915 -14.773,-18.804c-2.8,-6.889 -3.445,-14.068 -1.934,-21.538c1.51,-7.47 5.214,-14.886 11.113,-22.248c5.922,-7.39 12.379,-12.647 19.371,-15.77c6.992,-3.123 14.195,-4.048 21.609,-2.776c7.414,1.272 14.724,4.795 21.929,10.569Zm2.291,20.083l-10.586,-8.482c-4.923,-3.945 -9.764,-6.337 -14.522,-7.176c-4.757,-0.839 -9.414,-0.115 -13.97,2.173c-4.556,2.288 -9.013,6.152 -13.373,11.593c-4.337,5.413 -7.12,10.58 -8.347,15.501c-1.228,4.921 -0.933,9.579 0.885,13.974c1.818,4.394 5.128,8.516 9.932,12.365l10.946,8.771l39.035,-48.719Z" style="fill:#002fa6;fill-rule:nonzero;"/><path d="M2123.45,402.115l-44.692,79.166l-29.718,-16.778c-6.076,-3.43 -10.543,-7.445 -13.401,-12.045c-2.857,-4.6 -4.231,-9.476 -4.123,-14.628c0.108,-5.152 1.586,-10.251 4.435,-15.297c2.86,-5.066 6.475,-8.969 10.846,-11.708c4.37,-2.739 9.278,-4.055 14.722,-3.948c5.445,0.107 11.221,1.885 17.329,5.333l19.667,11.103l-6.651,11.782l-17.751,-10.021c-3.561,-2.01 -6.822,-3.036 -9.783,-3.076c-2.961,-0.041 -5.598,0.715 -7.912,2.267c-2.313,1.552 -4.26,3.727 -5.84,6.526c-1.585,2.809 -2.438,5.593 -2.559,8.352c-0.12,2.76 0.619,5.384 2.218,7.874c1.598,2.489 4.194,4.748 7.786,6.776l13.142,7.419l37.936,-67.197l14.349,8.1Z" style="fill:#002fa6;fill-rule:nonzero;"/><path d="M2006.54,340.343l16.087,7.087l-65.961,70.282l-18.59,-8.189l7.335,-96.108l16.088,7.087l-6.937,75.911l0.649,0.286l51.329,-56.356Zm-14.893,32.399l-43.872,-19.326l5.34,-12.122l43.872,19.326l-5.34,12.122Z" style="fill:#002fa6;fill-rule:nonzero;"/><path d="M1855.44,377.695l30.025,-85.808l15.554,5.443l-30.026,85.807l-15.553,-5.442Z" style="fill:#002fa6;fill-rule:nonzero;"/><path d="M1735.3,343.167l22.793,-88.005l14.163,3.668l25.965,70.699l0.722,0.187l15.528,-59.953l15.951,4.132l-22.793,88.005l-14.301,-3.704l-25.853,-70.707l-0.791,-0.205l-15.537,59.987l-15.847,-4.104Z" style="fill:#002fa6;fill-rule:nonzero;"/><path d="M1610.65,261.61c2.678,0.287 4.873,1.474 6.584,3.561c1.711,2.088 2.408,4.484 2.089,7.188c-0.254,2.651 -1.437,4.816 -3.551,6.495c-2.114,1.679 -4.51,2.375 -7.188,2.089c-2.589,-0.277 -4.747,-1.46 -6.473,-3.549c-1.726,-2.089 -2.462,-4.46 -2.209,-7.111c0.222,-1.792 0.86,-3.375 1.914,-4.751c1.055,-1.375 2.357,-2.419 3.906,-3.131c1.55,-0.713 3.192,-0.976 4.928,-0.791Z" style="fill:#002fa6;fill-rule:nonzero;"/></g></svg>